<svg width="100%" height="100%" viewBox="0 0 100 100" xmlns="http://www.w3.org/2000/svg"
     style="fill-rule:evenodd;clip-rule:evenodd;stroke-linejoin:round;stroke-miterlimit:2;">

    <!-- On adapte la couleur de remplissage de l'icône selon le mode du navigateur -->
    <style>
        <!-- Pourpre par défaut -->
        path {
        fill: #3B0E2E;
        }
        <!-- Blanc si le navigateur est en mode sombre -->
        @media (prefers-color-scheme: dark) {
        path {
        fill: white;
        }
        }
    </style>

    <path d="M50.002,0.043C77.563,0.043 99.939,22.434 99.939,50.014C99.939,77.593 77.563,99.984 50.002,99.984C22.441,99.984 0.065,77.593 0.065,50.014C0.065,22.434 22.441,0.043 50.002,0.043ZM53.749,12.912C65.143,12.912 74.095,16.819 80.606,24.632C87.116,32.445 90.372,41.218 90.372,50.951C90.372,58.146 88.606,64.722 85.074,70.679C81.542,76.636 76.935,80.836 71.255,83.277C65.574,85.719 59.543,86.94 53.163,86.94C42.778,86.94 34.135,83.326 27.234,76.099C20.332,68.872 16.882,59.692 16.882,48.559C16.882,42.732 18.412,36.97 21.472,31.273C24.532,25.576 28.853,21.091 34.436,17.82C40.019,14.548 46.457,12.912 53.749,12.912ZM53.456,82.301C59.587,82.301 64.699,80.948 68.792,78.242C72.885,75.536 75.812,72.202 77.573,68.241C79.334,64.28 80.215,59.006 80.215,52.42C80.215,41.042 77.834,32.345 73.073,26.33C68.311,20.315 61.87,17.307 53.749,17.307C45.367,17.307 38.812,20.396 34.083,26.575C29.354,32.753 26.99,40.08 26.99,48.557C26.99,71.053 35.812,82.301 53.456,82.301ZM13.072,32.396C13.687,32.396 14.166,32.622 14.51,33.073C14.854,33.525 15.026,33.995 15.026,34.483C15.026,35.265 14.633,35.973 13.847,36.607C13.453,36.925 13.14,37.474 12.907,38.255C12.673,39.037 12.501,40.557 12.391,42.815C12.28,45.073 12.077,46.435 11.783,46.898C11.488,47.362 11.181,47.594 10.861,47.594C10.468,47.594 10.228,47.289 10.143,46.679C10.057,46.068 10.014,44.445 10.014,41.808C10.014,40.441 9.885,39.195 9.627,38.072C9.369,36.949 9.24,36.168 9.24,35.728C9.24,34.679 9.731,33.861 10.714,33.275C11.697,32.689 12.483,32.396 13.072,32.396Z"/>

</svg>